<?xml version="1.0" standalone="no"?>
<!DOCTYPE svg PUBLIC "-//W3C//DTD SVG 20010904//EN"
 "http://www.w3.org/TR/2001/REC-SVG-20010904/DTD/svg10.dtd">
<svg version="1.0" xmlns="http://www.w3.org/2000/svg"
 width="512.000000pt" height="512.000000pt" viewBox="0 0 512.000000 512.000000"
 preserveAspectRatio="xMidYMid meet">
<metadata>
Created by potrace 1.14, written by Peter Selinger 2001-2017
</metadata>
<g transform="translate(0.000000,512.000000) scale(0.100000,-0.100000)"
fill="#000000" stroke="none">
<path d="M796 4847 c-28 -158 -29 -767 -1 -850 2 -7 6 -28 9 -47 19 -133 67
-292 123 -409 34 -72 35 -76 19 -101 -53 -82 -113 -229 -131 -320 -4 -19 -8
-118 -10 -220 -3 -205 -18 -288 -74 -399 -28 -54 -96 -149 -131 -181 -35 -32
-103 -127 -130 -179 -87 -174 -90 -396 -9 -618 157 -430 591 -847 1114 -1072
55 -23 109 -47 120 -52 54 -24 308 -97 395 -113 117 -20 148 -25 225 -33 91
-10 389 -10 485 -1 99 10 126 15 245 39 130 27 119 25 200 49 39 12 86 26 105
32 63 19 286 118 382 169 85 46 248 151 306 196 362 281 591 602 661 925 19
90 23 270 7 333 -30 116 -99 237 -186 325 -82 83 -152 206 -181 316 -16 64
-21 115 -23 269 -4 215 -18 289 -82 427 l-36 76 34 59 c54 93 64 114 91 193
51 151 69 235 95 440 15 124 6 637 -13 738 -2 9 -4 22 -4 29 -2 26 -167 -28
-291 -95 -121 -66 -308 -187 -385 -249 -5 -5 -50 -39 -100 -78 -49 -38 -92
-72 -95 -75 -3 -3 -36 -32 -75 -65 -38 -32 -112 -97 -163 -143 l-92 -84 -68
16 c-192 46 -332 61 -572 61 -185 0 -272 -6 -385 -25 -33 -6 -78 -13 -100 -16
-22 -4 -50 -10 -63 -15 -22 -9 -29 -4 -247 190 -187 166 -513 399 -677 484
-82 42 -202 89 -259 101 -24 5 -27 2 -33 -27z"/>
</g>
</svg>
